<svg xmlns:dc="http://purl.org/dc/elements/1.1/" xmlns:cc="http://creativecommons.org/ns#" xmlns:rdf="http://www.w3.org/1999/02/22-rdf-syntax-ns#" xmlns:svg="http://www.w3.org/2000/svg" xmlns="http://www.w3.org/2000/svg" viewBox="0 0 20 20" shape-rendering="crispEdges"><metadata><rdf:RDF><cc:Work><dc:format>image/svg+xml</dc:format><dc:type rdf:resource="http://purl.org/dc/dcmitype/StillImage"/><dc:title>Female / 8biticon</dc:title><dc:creator><cc:Agent><dc:title>Plastic Jam</dc:title></cc:Agent></dc:creator><dc:source>https://github.com/dicebear/dicebear</dc:source><cc:license rdf:resource="https://github.com/dicebear/dicebear/blob/v4/packages/avatars-female-sprites/LICENSE"/><dc:contributor><cc:Agent><dc:title>Florian Körner</dc:title></cc:Agent></dc:contributor></cc:Work></rdf:RDF></metadata><rect fill="transparent" width="20" height="20" x="0" y="0"/><path d="M3 20v-3h1v-1h4v-2H6v-1H5v-1H4v-1H3V9H2V7h1V4h1V3h1V2h10v1h1v1h1v3h1v2h-1v2h-1v1h-1v1h-1v1h-2v2h4v1h1v3H3z" fill="#EAC393"/><path d="M14 14v-1h1v-1h1v-1h1V9h1V7h-1V4h-1V3h-1V2H5v1H4v1H3v3H2v2h1v2h1v1h1v1h1v1h8z" fill="#FFF" fill-opacity=".1"/><path d="M6 7h1v2H5V8h1V7zm7 0h1v2h-2V8h1V7z" fill="#FFF"/><path d="M7 7v1H6v1h2V7H7zm7 0v1h-1v1h2V7h-1z" fill="#647b90"/><path d="M7 7v1h1V7H7zM6 8v1h1V8H6zm8-1v1h1V7h-1zm-1 1v1h1V8h-1z" fill="#FFF" fill-opacity=".5"/><path d="M7 5h1v1h1v1H8V6H7V5zm6 0v1h-1v1h-1V6h1V5h1z" fill-rule="evenodd" fill="#120e11"/><path d="M9 11v2h2v-1h-1v-1H9z" fill="#c98276"/><path d="M11 13v-1h-1v-1H9v1h1v1h1z" fill="#FFF" fill-opacity=".2"/><path d="M3 20v-3h1v-1h12v1h1v3H3z" fill="#ffeead"/><path d="M3 4v3h1V4h2v1h1V4h1v1h1V4h7v3h1V4h1V2h-1V1h-2v1H5V1H3v1H2v2h1z" fill="#2c222b"/></svg>