<svg xmlns:dc="http://purl.org/dc/elements/1.1/" xmlns:cc="http://creativecommons.org/ns#" xmlns:rdf="http://www.w3.org/1999/02/22-rdf-syntax-ns#" xmlns:svg="http://www.w3.org/2000/svg" xmlns="http://www.w3.org/2000/svg" viewBox="0 0 20 20" shape-rendering="crispEdges"><metadata><rdf:RDF><cc:Work><dc:format>image/svg+xml</dc:format><dc:type rdf:resource="http://purl.org/dc/dcmitype/StillImage"/><dc:title>Female / 8biticon</dc:title><dc:creator><cc:Agent><dc:title>Plastic Jam</dc:title></cc:Agent></dc:creator><dc:source>https://github.com/dicebear/dicebear</dc:source><cc:license rdf:resource="https://github.com/dicebear/dicebear/blob/v4/packages/avatars-female-sprites/LICENSE"/><dc:contributor><cc:Agent><dc:title>Florian Körner</dc:title></cc:Agent></dc:contributor></cc:Work></rdf:RDF></metadata><rect fill="transparent" width="20" height="20" x="0" y="0"/><path d="M3 20v-3h1v-1h4v-2H6v-1H5v-1H4v-1H3V9H2V7h1V4h1V3h1V2h10v1h1v1h1v3h1v2h-1v2h-1v1h-1v1h-1v1h-2v2h4v1h1v3H3z" fill="#EAC393"/><path d="M14 14v-1h1v-1h1v-1h1V9h1V7h-1V4h-1V3h-1V2H5v1H4v1H3v3H2v2h1v2h1v1h1v1h1v1h8z" fill="#FFF" fill-opacity=".1"/><path d="M6 7h1v1h1v1H6V7zm6 0h1v1h1v1h-2V7z" fill="#FFF"/><path d="M6 8h1v1H6V8zm6 0h1v1h-1V8z" fill="#588387"/><path d="M5 6h2v1H5V6zm8 0h2v1h-2V6z" fill-rule="evenodd" fill="#a68d72"/><path d="M8 11v1h1v1h2v-1h1v-1H8z" fill="#d11f4c"/><path d="M3 20v-3h1v-1h3v1h1v1h1v1h2v-1h1v-1h1v-1h3v1h1v3H3z" fill="#ffcc5c"/><path d="M6 16v1h1v1h1v1h1v1h2v-1h1v-1h1v-1h1v-1h-1v1h-1v1h-1v1H9v-1H8v-1H7v-1H6z" fill="#FFF" fill-opacity=".4"/><path d="M15 16v1h-1v1h-1v1h-1v1h-1v-1h1v-1h1v-1h1v-1h1zM5 16v1h1v1h1v1h1v1h1v-1H8v-1H7v-1H6v-1H5z" fill-rule="evenodd" fill="#FFF" fill-opacity=".2"/><path d="M3 20h1v-3h1v1h1v1h1v1h1v-1H7v-1H6v-1H5v-1H4v1H3v3zm14 0v-3h-1v-1h-1v1h-1v1h-1v1h-1v1h1v-1h1v-1h1v-1h1v3h1z" fill-rule="evenodd" fill="#FFF" fill-opacity=".1"/><path d="M4 12h1v1H3V4h1V3h1V2h10v1h1v1h1v9h-2v-1h1V5H4v7z" fill="#bfa284"/></svg>